<svg xmlns="http://www.w3.org/2000/svg" viewBox="0 0 401 62" width="401" height="62">
	<defs>
		<clipPath clipPathUnits="userSpaceOnUse" id="cp1">
			<path d="M-101 -218L2299 -218L2299 1626L-101 1626Z" />
		</clipPath>
	</defs>
	<style>
		tspan { white-space:pre }
		.shp0 { fill: #ffffff } 
	</style>
	<g id="Page 1" clip-path="url(#cp1)">
		<path id="Path 23" fill-rule="evenodd" class="shp0" d="M36.85 1.65L36.85 56.29L34.35 56.29L34.35 15.89C34.35 12.92 34.43 10.02 34.51 7.28L34.43 7.28L31.3 15.03L20.18 42.12L17.67 42.12L6.64 15.03C5.54 12.29 4.37 9.63 3.51 7.28L3.43 7.28C3.51 10.02 3.51 12.92 3.51 15.89L3.51 56.29L1 56.29L1 1.65L3.66 1.65L15.87 31.16C16.89 33.66 17.99 36.72 18.93 39.06L19.01 39.06C19.87 36.72 21.04 33.66 22.06 31.16L34.19 1.65L36.85 1.65ZM92.6 41.41L73.66 41.41L69.74 56.44L67.08 56.44L81.72 1.64L84.54 1.64L99.18 56.44L96.51 56.44L92.6 41.41ZM91.97 39.14L86.18 16.83C85.08 12.68 84.07 8.45 83.13 4.93C82.19 8.45 81.17 12.68 80.07 16.83L74.28 39.14L91.97 39.14ZM122.04 59.57C128.07 59.57 130.81 55.9 130.81 49.4L130.81 1.65L133.32 1.65L133.32 49.4C133.32 57.22 129.64 62 122.04 62L122.04 59.57ZM193.37 54.09L193.37 56.44L168.86 56.44L168.86 1.65L193.13 1.65L193.13 3.99L171.37 3.99L171.37 27.4L191.49 27.4L191.49 29.75L171.37 29.75L171.37 54.09L193.37 54.09ZM222.49 43.68L225 43.68C225.63 50.73 229.54 54.96 236.12 54.96C243.08 54.96 247 50.26 247 44.07C247 29.67 222.96 29.04 222.96 13.31C222.96 6.03 228.37 0.71 235.96 0.71C243.55 0.71 248.48 6.03 249.03 14.25L246.53 14.25C245.9 7.05 242.07 3.13 236.04 3.13C229.85 3.13 225.47 7.28 225.47 13.31C225.47 27.32 249.58 27.87 249.58 44.07C249.58 51.35 244.49 57.38 236.12 57.38C227.9 57.38 222.96 51.75 222.49 43.68ZM304.78 3.99L292.25 3.99L292.25 56.44L289.75 56.44L289.75 3.99L277.46 3.99L277.46 1.64L304.78 1.64L304.78 3.99ZM338.29 56.44L335.78 56.44L335.78 1.64L338.29 1.64L338.29 56.44ZM372.51 41.26L372.51 16.83C372.51 6.19 377.98 0.7 386.28 0.7C394.97 0.7 399.98 5.79 400.69 15.66L398.18 15.66C397.48 7.12 393.49 3.05 386.28 3.05C379.47 3.05 375.01 7.52 375.01 16.83L375.01 41.26C375.01 50.57 379.47 55.03 386.36 55.03C393.72 55.03 397.87 50.96 398.57 42.43L401 42.43C400.37 52.29 395.21 57.38 386.36 57.38C378.06 57.38 372.51 51.9 372.51 41.26Z" />
	</g>
</svg>